<svg width="15" height="15" viewBox="0 0 15 15" fill="none" xmlns="http://www.w3.org/2000/svg">
<g id="carbon:location-filled">
<path id="Vector" d="M7.16938 1.45789C5.92046 1.45936 4.72312 1.95614 3.84 2.83926C2.95688 3.72238 2.4601 4.91972 2.45862 6.16864C2.45713 7.18926 2.79051 8.18218 3.40763 8.9951C3.40763 8.9951 3.5361 9.16426 3.55709 9.18867L7.16938 13.4489L10.7834 9.18653C10.8022 9.16383 10.9311 8.9951 10.9311 8.9951L10.9316 8.99381C11.5484 8.18125 11.8816 7.18879 11.8801 6.16864C11.8787 4.91972 11.3819 3.72238 10.4988 2.83926C9.61564 1.95614 8.4183 1.45936 7.16938 1.45789ZM7.16938 7.88165C6.83058 7.88165 6.49939 7.78118 6.21769 7.59295C5.93599 7.40473 5.71643 7.13719 5.58677 6.82418C5.45712 6.51117 5.4232 6.16674 5.48929 5.83445C5.55539 5.50216 5.71854 5.19693 5.9581 4.95737C6.19767 4.7178 6.5029 4.55465 6.83519 4.48855C7.16748 4.42246 7.51191 4.45638 7.82492 4.58603C8.13793 4.71569 8.40546 4.93525 8.59369 5.21695C8.78192 5.49865 8.88238 5.82984 8.88238 6.16864C8.88182 6.62279 8.70116 7.05817 8.38003 7.37929C8.0589 7.70042 7.62352 7.88108 7.16938 7.88165Z" fill="white"/>
</g>
</svg>
